<?xml version="1.0" encoding="UTF-8" standalone="no"?>
<svg xmlns="http://www.w3.org/2000/svg" width="200" height="200" viewBox="0 0 200 200">
  <defs>
    <linearGradient id="grad1" x1="0%" y1="0%" x2="100%" y2="100%">
      <stop offset="0%" style="stop-color:#1a3a63;stop-opacity:1" />
      <stop offset="100%" style="stop-color:#2c5a93;stop-opacity:1" />
    </linearGradient>
  </defs>
  <circle cx="100" cy="100" r="90" fill="url(#grad1)" />
  <circle cx="100" cy="100" r="80" fill="#ffffff" />
  <circle cx="100" cy="100" r="70" fill="url(#grad1)" />
  
  <!-- Microphone Icon -->
  <path d="M100,60 L100,60 C93.5,60 88,65.5 88,72 L88,100 C88,106.5 93.5,112 100,112 C106.5,112 112,106.5 112,100 L112,72 C112,65.5 106.5,60 100,60 Z" fill="#ffffff"/>
  <path d="M120,92 L120,100 C120,115.5 107.5,128 92,128 L108,128 C123.5,128 136,115.5 136,100 L136,92 L120,92 Z" fill="#ffffff"/>
  <rect x="96" y="128" width="8" height="20" fill="#ffffff"/>
  <rect x="84" y="148" width="32" height="4" fill="#ffffff"/>
  
  <!-- Camera Flash -->
  <polygon points="140,70 150,50 130,60 140,40 120,60" fill="#4caf50" />
  
  <!-- Text -->
  <text x="100" y="180" font-family="Cairo, sans-serif" font-size="14" font-weight="bold" text-anchor="middle" fill="#ffffff">نادي إثراء الإعلامي</text>
</svg>
